<svg xmlns="http://www.w3.org/2000/svg" viewBox="0 0 1200 750" width="1200" height="750">
<rect width="1200" height="750" fill="#071527"/>
<rect width="1200" height="750" fill="#0b1f3a" opacity="0.55"/>
<line x1="0" y1="0" x2="0" y2="750" stroke="rgba(246,247,245,0.08)" stroke-width="1"/>
<line x1="60" y1="0" x2="60" y2="750" stroke="rgba(246,247,245,0.08)" stroke-width="1"/>
<line x1="120" y1="0" x2="120" y2="750" stroke="rgba(246,247,245,0.08)" stroke-width="1"/>
<line x1="180" y1="0" x2="180" y2="750" stroke="rgba(246,247,245,0.08)" stroke-width="1"/>
<line x1="240" y1="0" x2="240" y2="750" stroke="rgba(246,247,245,0.08)" stroke-width="1"/>
<line x1="300" y1="0" x2="300" y2="750" stroke="rgba(246,247,245,0.08)" stroke-width="1"/>
<line x1="360" y1="0" x2="360" y2="750" stroke="rgba(246,247,245,0.08)" stroke-width="1"/>
<line x1="420" y1="0" x2="420" y2="750" stroke="rgba(246,247,245,0.08)" stroke-width="1"/>
<line x1="480" y1="0" x2="480" y2="750" stroke="rgba(246,247,245,0.08)" stroke-width="1"/>
<line x1="540" y1="0" x2="540" y2="750" stroke="rgba(246,247,245,0.08)" stroke-width="1"/>
<line x1="600" y1="0" x2="600" y2="750" stroke="rgba(246,247,245,0.08)" stroke-width="1"/>
<line x1="660" y1="0" x2="660" y2="750" stroke="rgba(246,247,245,0.08)" stroke-width="1"/>
<line x1="720" y1="0" x2="720" y2="750" stroke="rgba(246,247,245,0.08)" stroke-width="1"/>
<line x1="780" y1="0" x2="780" y2="750" stroke="rgba(246,247,245,0.08)" stroke-width="1"/>
<line x1="840" y1="0" x2="840" y2="750" stroke="rgba(246,247,245,0.08)" stroke-width="1"/>
<line x1="900" y1="0" x2="900" y2="750" stroke="rgba(246,247,245,0.08)" stroke-width="1"/>
<line x1="960" y1="0" x2="960" y2="750" stroke="rgba(246,247,245,0.08)" stroke-width="1"/>
<line x1="1020" y1="0" x2="1020" y2="750" stroke="rgba(246,247,245,0.08)" stroke-width="1"/>
<line x1="1080" y1="0" x2="1080" y2="750" stroke="rgba(246,247,245,0.08)" stroke-width="1"/>
<line x1="1140" y1="0" x2="1140" y2="750" stroke="rgba(246,247,245,0.08)" stroke-width="1"/>
<line x1="0" y1="0" x2="1200" y2="0" stroke="rgba(246,247,245,0.08)" stroke-width="1"/>
<line x1="0" y1="60" x2="1200" y2="60" stroke="rgba(246,247,245,0.08)" stroke-width="1"/>
<line x1="0" y1="120" x2="1200" y2="120" stroke="rgba(246,247,245,0.08)" stroke-width="1"/>
<line x1="0" y1="180" x2="1200" y2="180" stroke="rgba(246,247,245,0.08)" stroke-width="1"/>
<line x1="0" y1="240" x2="1200" y2="240" stroke="rgba(246,247,245,0.08)" stroke-width="1"/>
<line x1="0" y1="300" x2="1200" y2="300" stroke="rgba(246,247,245,0.08)" stroke-width="1"/>
<line x1="0" y1="360" x2="1200" y2="360" stroke="rgba(246,247,245,0.08)" stroke-width="1"/>
<line x1="0" y1="420" x2="1200" y2="420" stroke="rgba(246,247,245,0.08)" stroke-width="1"/>
<line x1="0" y1="480" x2="1200" y2="480" stroke="rgba(246,247,245,0.08)" stroke-width="1"/>
<line x1="0" y1="540" x2="1200" y2="540" stroke="rgba(246,247,245,0.08)" stroke-width="1"/>
<line x1="0" y1="600" x2="1200" y2="600" stroke="rgba(246,247,245,0.08)" stroke-width="1"/>
<line x1="0" y1="660" x2="1200" y2="660" stroke="rgba(246,247,245,0.08)" stroke-width="1"/>
<line x1="0" y1="720" x2="1200" y2="720" stroke="rgba(246,247,245,0.08)" stroke-width="1"/>
<rect x="0" y="0" width="1200" height="46" fill="#071527"/>
<circle cx="28" cy="23" r="6" fill="#7fe0c1" opacity="0.7"/>
<circle cx="50" cy="23" r="6" fill="#4a6fa5" opacity="0.7"/>
<circle cx="72" cy="23" r="6" fill="rgba(246,247,245,0.45)" opacity="0.7"/>
<text x="1176" y="29" text-anchor="end" font-family="Arial, sans-serif" font-size="12" fill="rgba(246,247,245,0.45)" letter-spacing="2">POWER BI</text>
<text x="70.0" y="130.0" font-family="Arial, sans-serif" font-size="11" fill="rgba(246,247,245,0.45)" letter-spacing="1">METRIC A</text>
<text x="70.0" y="156.0" font-family="Georgia, serif" font-size="20" font-weight="700" fill="#f6f7f5">--</text>
<text x="335.0" y="130.0" font-family="Arial, sans-serif" font-size="11" fill="rgba(246,247,245,0.45)" letter-spacing="1">METRIC B</text>
<text x="335.0" y="156.0" font-family="Georgia, serif" font-size="20" font-weight="700" fill="#f6f7f5">--</text>
<text x="600.0" y="130.0" font-family="Arial, sans-serif" font-size="11" fill="rgba(246,247,245,0.45)" letter-spacing="1">METRIC C</text>
<text x="600.0" y="156.0" font-family="Georgia, serif" font-size="20" font-weight="700" fill="#f6f7f5">--</text>
<text x="865.0" y="130.0" font-family="Arial, sans-serif" font-size="11" fill="rgba(246,247,245,0.45)" letter-spacing="1">METRIC D</text>
<text x="865.0" y="156.0" font-family="Georgia, serif" font-size="20" font-weight="700" fill="#f6f7f5">--</text>
<path d="M 70.0 332.9 L 175.7 315.0 L 281.4 371.8 L 387.1 376.0 L 492.9 263.7 L 598.6 246.6 L 704.3 307.5 L 810.0 306.1" fill="none" stroke="#7fe0c1" stroke-width="3"/>
<rect x="860.0" y="293.9" width="35.0" height="156.1" rx="2" fill="#7fe0c1" opacity="0.85"/>
<rect x="905.0" y="242.8" width="35.0" height="207.2" rx="2" fill="#4a6fa5" opacity="0.85"/>
<rect x="950.0" y="253.7" width="35.0" height="196.3" rx="2" fill="#4a6fa5" opacity="0.85"/>
<rect x="995.0" y="193.1" width="35.0" height="256.9" rx="2" fill="#7fe0c1" opacity="0.85"/>
<rect x="1040.0" y="365.8" width="35.0" height="84.2" rx="2" fill="#4a6fa5" opacity="0.85"/>
<rect x="1085.0" y="306.5" width="35.0" height="143.5" rx="2" fill="#4a6fa5" opacity="0.85"/>
<rect x="70" y="490" width="709.8" height="10" rx="3" fill="rgba(246,247,245,0.08)"/>
<rect x="70" y="516" width="986.7" height="10" rx="3" fill="rgba(246,247,245,0.08)"/>
<rect x="70" y="542" width="661.8" height="10" rx="3" fill="rgba(246,247,245,0.08)"/>
<rect x="70" y="568" width="630.8" height="10" rx="3" fill="rgba(246,247,245,0.08)"/>
<rect x="0" y="654" width="1200" height="96" fill="#071527" opacity="0.92"/>
<text x="70" y="698" font-family="Georgia, serif" font-size="26" font-weight="700" fill="#f6f7f5">Behind the Growth</text>
<text x="70" y="726" font-family="Arial, sans-serif" font-size="14" fill="rgba(246,247,245,0.45)" letter-spacing="1">DASHBOARD PREVIEW — ADD SCREENSHOT VIA WEBSITE BUILDER</text>
</svg>